<svg width="21" height="18" viewBox="0 0 21 18" fill="none" xmlns="http://www.w3.org/2000/svg">
<path d="M2 0.5C1.17157 0.5 0.5 1.17157 0.5 2C0.5 2.82843 1.17157 3.5 2 3.5V0.5ZM19 3.5C19.8284 3.5 20.5 2.82843 20.5 2C20.5 1.17157 19.8284 0.5 19 0.5V3.5ZM2 3.5H19V0.5H2V3.5Z" fill="white"/>
<path d="M2 7.5C1.17157 7.5 0.5 8.17157 0.5 9C0.5 9.82843 1.17157 10.5 2 10.5V7.5ZM19 10.5C19.8284 10.5 20.5 9.82843 20.5 9C20.5 8.17157 19.8284 7.5 19 7.5V10.5ZM2 10.5H19V7.5H2V10.5Z" fill="white"/>
<path d="M2 14.5C1.17157 14.5 0.5 15.1716 0.5 16C0.5 16.8284 1.17157 17.5 2 17.5V14.5ZM19 17.5C19.8284 17.5 20.5 16.8284 20.5 16C20.5 15.1716 19.8284 14.5 19 14.5V17.5ZM2 17.5H19V14.5H2V17.5Z" fill="white"/>
</svg>
