<svg width="46" height="46" viewBox="0 0 46 46" fill="none" xmlns="http://www.w3.org/2000/svg">
<circle cx="23" cy="23" r="21.5" stroke="white" stroke-width="3"/>
<path d="M15 14.5C14.1716 14.5 13.5 15.1716 13.5 16C13.5 16.8284 14.1716 17.5 15 17.5V14.5ZM32 17.5C32.8284 17.5 33.5 16.8284 33.5 16C33.5 15.1716 32.8284 14.5 32 14.5V17.5ZM15 17.5H32V14.5H15V17.5Z" fill="white"/>
<path d="M15 21.5C14.1716 21.5 13.5 22.1716 13.5 23C13.5 23.8284 14.1716 24.5 15 24.5V21.5ZM32 24.5C32.8284 24.5 33.5 23.8284 33.5 23C33.5 22.1716 32.8284 21.5 32 21.5V24.5ZM15 24.5H32V21.5H15V24.5Z" fill="white"/>
<path d="M15 28.5C14.1716 28.5 13.5 29.1716 13.5 30C13.5 30.8284 14.1716 31.5 15 31.5V28.5ZM32 31.5C32.8284 31.5 33.5 30.8284 33.5 30C33.5 29.1716 32.8284 28.5 32 28.5V31.5ZM15 31.5H32V28.5H15V31.5Z" fill="white"/>
</svg>
