<svg width="21" height="20" viewBox="0 0 21 20" fill="none" xmlns="http://www.w3.org/2000/svg">
<path d="M2.95356 1.8421C2.31407 1.31547 1.36874 1.40695 0.842105 2.04644C0.315468 2.68593 0.406951 3.63126 1.04644 4.1579L2.95356 1.8421ZM18.0464 18.1579C18.6859 18.6845 19.6313 18.593 20.1579 17.9536C20.6845 17.3141 20.593 16.3687 19.9536 15.8421L18.0464 18.1579ZM1.04644 4.1579L18.0464 18.1579L19.9536 15.8421L2.95356 1.8421L1.04644 4.1579Z" fill="white"/>
<path d="M19.9475 4.14785C20.5864 3.62053 20.6769 2.6751 20.1496 2.03617C19.6222 1.39725 18.6768 1.30677 18.0379 1.83409L19.9475 4.14785ZM1.05278 15.8522C0.413858 16.3795 0.323379 17.3249 0.850697 17.9638C1.37801 18.6028 2.32344 18.6932 2.96237 18.1659L1.05278 15.8522ZM18.0379 1.83409L1.05278 15.8522L2.96237 18.1659L19.9475 4.14785L18.0379 1.83409Z" fill="white"/>
</svg>
