<svg width="25" height="25" viewBox="0 0 25 25" fill="none" xmlns="http://www.w3.org/2000/svg">
<circle cx="12.5" cy="12.5" r="12.5" fill="#342022"/>
<path d="M13 5.5C13 5.22386 12.7761 5 12.5 5C12.2239 5 12 5.22386 12 5.5H13ZM12.5 12L12.1626 12.369L12.5 12.6775L12.8374 12.369L12.5 12ZM15.3374 10.0833C15.5412 9.89697 15.5553 9.5807 15.369 9.3769C15.1827 9.1731 14.8664 9.15894 14.6626 9.34527L15.3374 10.0833ZM10.3374 9.34527C10.1336 9.15894 9.81732 9.1731 9.63099 9.3769C9.44465 9.5807 9.45881 9.89697 9.66262 10.0833L10.3374 9.34527ZM12 5.5V12H13V5.5H12ZM12.8374 12.369L15.3374 10.0833L14.6626 9.34527L12.1626 11.631L12.8374 12.369ZM12.8374 11.631L10.3374 9.34527L9.66262 10.0833L12.1626 12.369L12.8374 11.631Z" fill="white"/>
<path fill-rule="evenodd" clip-rule="evenodd" d="M9.53846 11H8C7.44772 11 7 11.4477 7 12V17C7 17.5523 7.44771 18 8 18H17C17.5523 18 18 17.5523 18 17V12C18 11.4477 17.5523 11 17 11H15.4615V12H17V17H8L8 12H9.53846V11Z" fill="white"/>
</svg>
