<svg xmlns="http://www.w3.org/2000/svg" viewBox="0 0 153.12 50.42"><defs><style>.cls-1{fill:#fff;}.cls-2,.cls-3,.cls-4,.cls-5{fill:none;}.cls-3,.cls-4,.cls-5{stroke:#fff;stroke-miterlimit:10;}.cls-3,.cls-4{stroke-width:1.5px;}.cls-4{stroke-linecap:round;}.cls-5{stroke-width:3px;}</style></defs><g id="Слой_1" data-name="Слой 1"><path class="cls-1" d="M66.26,21.26q0,.63,2,1.56a9.27,9.27,0,0,1,1.3.64,6.83,6.83,0,0,1,1.18.84,3.53,3.53,0,0,1,1,1.26,3.91,3.91,0,0,1,.34,1.62,4.43,4.43,0,0,1-1.38,3.34,4.86,4.86,0,0,1-3.5,1.32,5.76,5.76,0,0,1-4-1.48V26.44A8.64,8.64,0,0,0,65.1,28a4.46,4.46,0,0,0,2.26.76,1.75,1.75,0,0,0,1.08-.32,1.08,1.08,0,0,0,.44-.88,1,1,0,0,0-.28-.66,2.09,2.09,0,0,0-.6-.46c-.22-.12-.55-.29-1-.5l-1-.52c-.59-.34-1.06-.62-1.42-.86a3.52,3.52,0,0,1-1.1-1.28,4,4,0,0,1-.4-1.78,4.07,4.07,0,0,1,1.28-3.14,4.64,4.64,0,0,1,3.28-1.2,5.91,5.91,0,0,1,3.76,1.24v3.7a6.64,6.64,0,0,0-3.94-1.82,1.22,1.22,0,0,0-.82.28A.84.84,0,0,0,66.26,21.26Zm14.53,7.26v3a5.62,5.62,0,0,1-1.54.24,3.61,3.61,0,0,1-2.9-1.18,4.46,4.46,0,0,1-1-3V24.2H74.19V21.54h1.18v-1.6l3.1-1.3v2.9h2.32V24.2H78.47v3.54a1.25,1.25,0,0,0,.24.76.83.83,0,0,0,.66.3A5.36,5.36,0,0,0,80.79,28.52Zm5.9.84a1.69,1.69,0,0,0,1.28-.5,1.67,1.67,0,0,0,.5-1.24v-.1A7.41,7.41,0,0,0,87,27.38a1.49,1.49,0,0,0-1,.3.86.86,0,0,0-.36.72Q85.61,29.36,86.69,29.36Zm4.78-4.16v6.42H88.69l-.1-.78a3,3,0,0,1-2.18,1,4,4,0,0,1-2.7-.78,3.12,3.12,0,0,1-.86-2.38,2.8,2.8,0,0,1,1.1-2.3,4.72,4.72,0,0,1,3-.9,7.39,7.39,0,0,1,1.38.12v-.5a.76.76,0,0,0-.44-.66,1.57,1.57,0,0,0-.94-.3,6.28,6.28,0,0,0-1.54.16,9.57,9.57,0,0,0-1.5.6V22a8.66,8.66,0,0,1,3-.7,4.83,4.83,0,0,1,3.2,1.06A3.41,3.41,0,0,1,91.47,25.2Zm6-3.66.12.84a2.13,2.13,0,0,1,.82-.68,2.18,2.18,0,0,1,1-.28,6.18,6.18,0,0,1,1.18.1v3.14a4,4,0,0,0-1.18-.16,1.42,1.42,0,0,0-1.3.6,3.21,3.21,0,0,0-.38,1.74v4.78H94.6V21.54ZM113,26.6a5.54,5.54,0,0,1-1.3,3.7,4.39,4.39,0,0,1-3.52,1.54,3.42,3.42,0,0,1-2.38-1l-.1.78h-2.86V16.34H106V22a4.55,4.55,0,0,1,5.76.92A5.53,5.53,0,0,1,113,26.6Zm-3.16,0a2.54,2.54,0,0,0-.52-1.68,1.6,1.6,0,0,0-1.34-.64,1.84,1.84,0,0,0-1.48.68A2.45,2.45,0,0,0,106,26.6v1.16a2.43,2.43,0,0,0,2,1.1,1.64,1.64,0,0,0,1.34-.62A2.46,2.46,0,0,0,109.86,26.6Zm11.51.52V21.54h3.1v5.8a4.46,4.46,0,0,1-1.2,3.3,5,5,0,0,1-6.52,0,4.46,4.46,0,0,1-1.2-3.3v-5.8h3.1v5.58c0,1.16.46,1.74,1.36,1.74S121.37,28.28,121.37,27.12Zm14.28-3.94-3.42,4.74c-.18.22-.45.55-.82,1V29c.62-.06,1.15-.08,1.58-.08h2.66v2.68h-8.78V30l3.54-4.86a9.88,9.88,0,0,1,.78-.92v-.12q-.72.06-1.38.06h-2.54V21.54h8.38Zm10.58,0-3.42,4.74c-.17.22-.44.55-.82,1V29c.63-.06,1.16-.08,1.58-.08h2.66v2.68h-8.78V30L141,25.18c.15-.2.41-.51.78-.92v-.12q-.72.06-1.38.06h-2.54V21.54h8.38Z"/><rect class="cls-2" x="9.41" y="6.13" width="34" height="34"/></g><g id="Слой_3" data-name="Слой 3"><path class="cls-3" d="M29.18,34.07c9.19-3.79,7.15-13.5,7.15-13.5H14.21a13.4,13.4,0,0,0,7.06,13.5"/><path class="cls-3" d="M10.42,34.07h29.7a.33.33,0,0,1,.3.49,7.14,7.14,0,0,1-3.27,2.49c-.21.05-18.8.1-22.69,0a2.14,2.14,0,0,1-1.24-.43C12.13,35.8,9.79,34.06,10.42,34.07Z"/><path class="cls-3" d="M36.39,24.84a3.17,3.17,0,0,1,3.19-1.9,2.4,2.4,0,0,1,2.65,2.67c0,3.07-4.83,5.45-8.84,5.66"/><path class="cls-4" d="M22.12,17.61a5.11,5.11,0,0,1-.87-2.43c0-1.32.92-1.65,1.25-2.57a4.28,4.28,0,0,0-.67-3.41"/><path class="cls-4" d="M26.28,17.61a5.23,5.23,0,0,1-.87-2.43c0-1.32.92-1.65,1.25-2.57A4.23,4.23,0,0,0,26,9.2"/><path class="cls-4" d="M30.45,17.61a5.11,5.11,0,0,1-.87-2.43c0-1.32.91-1.65,1.25-2.57a4.26,4.26,0,0,0-.68-3.41"/><circle class="cls-5" cx="25.41" cy="25.4" r="23"/></g></svg>