<svg xmlns="http://www.w3.org/2000/svg" viewBox="0 0 153.12 50.42"><defs><style>.cls-1{font-size:20px;fill:#fff;font-family:CorsicaMX-Bold, Corsica MX;font-weight:700;letter-spacing:0.04em;}.cls-2,.cls-3,.cls-4{fill:none;stroke:#fff;stroke-miterlimit:10;}.cls-2,.cls-3{stroke-width:1.5px;}.cls-3{stroke-linecap:round;}.cls-4{stroke-width:3px;}</style></defs><g id="Слой_4" data-name="Слой 4"><text class="cls-1" transform="translate(61.9 31.71)">Starbuzz</text></g><g id="Слой_3" data-name="Слой 3"><path class="cls-2" d="M29.18,34.07c9.19-3.79,7.15-13.5,7.15-13.5H14.21a13.4,13.4,0,0,0,7.06,13.5"/><path class="cls-2" d="M10.42,34.07h29.7a.33.33,0,0,1,.3.49,7.14,7.14,0,0,1-3.27,2.49c-.21.05-18.8.1-22.69,0a2.14,2.14,0,0,1-1.24-.43C12.13,35.8,9.79,34.06,10.42,34.07Z"/><path class="cls-2" d="M36.39,24.84a3.17,3.17,0,0,1,3.19-1.9,2.4,2.4,0,0,1,2.65,2.67c0,3.07-4.83,5.45-8.84,5.66"/><path class="cls-3" d="M22.12,17.61a5.11,5.11,0,0,1-.87-2.43c0-1.32.92-1.65,1.25-2.57a4.28,4.28,0,0,0-.67-3.41"/><path class="cls-3" d="M26.28,17.61a5.23,5.23,0,0,1-.87-2.43c0-1.32.92-1.65,1.25-2.57A4.23,4.23,0,0,0,26,9.2"/><path class="cls-3" d="M30.45,17.61a5.11,5.11,0,0,1-.87-2.43c0-1.32.91-1.65,1.25-2.57a4.26,4.26,0,0,0-.68-3.41"/><circle class="cls-4" cx="25.41" cy="25.4" r="23"/></g></svg>