<svg id="Слой_3" data-name="Слой 3" xmlns="http://www.w3.org/2000/svg" viewBox="0 0 50.62 50.42"><defs><style>.cls-1,.cls-2,.cls-3{fill:none;stroke:#fff;stroke-miterlimit:10;}.cls-1,.cls-2{stroke-width:1.5px;}.cls-2{stroke-linecap:round;}.cls-3{stroke-width:3px;}</style></defs><path class="cls-1" d="M29.08,34.07c9.19-3.79,7.16-13.5,7.16-13.5H14.12a13.39,13.39,0,0,0,7.05,13.5"/><path class="cls-1" d="M10.32,34.07H40a.34.34,0,0,1,.31.49,7.25,7.25,0,0,1-3.27,2.49c-.21.05-18.8.1-22.69,0a2.17,2.17,0,0,1-1.25-.43C12,35.8,9.69,34.06,10.32,34.07Z"/><path class="cls-1" d="M36.3,24.84a3.15,3.15,0,0,1,3.18-1.9,2.39,2.39,0,0,1,2.65,2.67c0,3.07-4.83,5.45-8.83,5.66"/><path class="cls-2" d="M22,17.61a5.19,5.19,0,0,1-.88-2.43c0-1.32.92-1.65,1.26-2.57a4.26,4.26,0,0,0-.68-3.41"/><path class="cls-2" d="M26.19,17.61a5.11,5.11,0,0,1-.87-2.43c0-1.32.92-1.65,1.25-2.57A4.28,4.28,0,0,0,25.9,9.2"/><path class="cls-2" d="M30.35,17.61a5.11,5.11,0,0,1-.87-2.43c0-1.32.92-1.65,1.25-2.57a4.23,4.23,0,0,0-.67-3.41"/><circle class="cls-3" cx="25.32" cy="25.4" r="23"/></svg>