<svg id="Слой_3" data-name="Слой 3" xmlns="http://www.w3.org/2000/svg" viewBox="0 0 36 30"><defs><style>.cls-1,.cls-2{fill:none;stroke:#342022;stroke-miterlimit:10;stroke-width:1.5px;}.cls-2{stroke-linecap:round;}</style></defs><path class="cls-1" d="M21,25.93c9.19-3.79,7.15-13.5,7.15-13.5H6a13.4,13.4,0,0,0,7.06,13.5"/><path class="cls-1" d="M2.21,25.93h29.7a.33.33,0,0,1,.3.49,7.2,7.2,0,0,1-3.27,2.49c-.21.05-18.8.09-22.69,0A2.14,2.14,0,0,1,5,28.44C3.92,27.66,1.58,25.92,2.21,25.93Z"/><path class="cls-1" d="M28.18,16.69a3.17,3.17,0,0,1,3.19-1.9A2.41,2.41,0,0,1,34,17.47c0,3.07-4.83,5.45-8.84,5.66"/><path class="cls-2" d="M13.91,9.47A5.11,5.11,0,0,1,13,7c0-1.32.92-1.65,1.25-2.57a4.28,4.28,0,0,0-.67-3.41"/><path class="cls-2" d="M18.07,9.47A5.11,5.11,0,0,1,17.2,7c0-1.32.92-1.65,1.25-2.57a4.23,4.23,0,0,0-.67-3.41"/><path class="cls-2" d="M22.24,9.47A5.11,5.11,0,0,1,21.37,7c0-1.32.91-1.65,1.25-2.57a4.26,4.26,0,0,0-.68-3.41"/></svg>