<svg xmlns="http://www.w3.org/2000/svg" viewBox="0 0 195 62"><defs><style>.cls-1{font-size:30.23px;fill:#fff;font-family:CorsicaMX-Bold, Corsica MX;font-weight:700;letter-spacing:0.04em;}.cls-2,.cls-3,.cls-4{fill:none;stroke:#fff;stroke-miterlimit:10;}.cls-2,.cls-3{stroke-width:1.5px;}.cls-3{stroke-linecap:round;}.cls-4{stroke-width:3px;}</style></defs><g id="Слой_4" data-name="Слой 4"><text class="cls-1" transform="translate(67.58 40.75) scale(0.99 1)">Starbuzz</text></g><g id="Слой_3" data-name="Слой 3"><path class="cls-2" d="M35.78,43.27c12.07-5,9.39-17.72,9.39-17.72h-29S14.21,37.3,25.39,43.27"/><path class="cls-2" d="M11.14,43.27h39a.44.44,0,0,1,.39.66,9.33,9.33,0,0,1-4.29,3.26c-.27.07-24.69.13-29.8,0a2.91,2.91,0,0,1-1.63-.56C13.39,45.55,10.31,43.26,11.14,43.27Z"/><path class="cls-2" d="M45.25,31.15a4.16,4.16,0,0,1,4.18-2.49,3.16,3.16,0,0,1,3.49,3.51c0,4-6.35,7.15-11.61,7.43"/><path class="cls-3" d="M26.51,21.66a6.71,6.71,0,0,1-1.14-3.18c0-1.74,1.2-2.17,1.64-3.39.77-2.15-.88-4.47-.88-4.47"/><path class="cls-3" d="M32,21.66a6.68,6.68,0,0,1-1.15-3.18c0-1.74,1.21-2.17,1.65-3.39.76-2.15-.89-4.47-.89-4.47"/><path class="cls-3" d="M37.45,21.66a6.68,6.68,0,0,1-1.15-3.18c0-1.74,1.21-2.17,1.64-3.39.77-2.15-.88-4.47-.88-4.47"/><circle class="cls-4" cx="31.1" cy="31.18" r="28"/></g></svg>