<?xml version="1.0" encoding="utf-8"?>
<!-- Generator: Adobe Illustrator 25.2.3, SVG Export Plug-In . SVG Version: 6.00 Build 0)  -->
<svg version="1.1" xmlns="http://www.w3.org/2000/svg" xmlns:xlink="http://www.w3.org/1999/xlink" x="0px" y="0px"
	 viewBox="0 0 150 46" style="enable-background:new 0 0 150 46;" xml:space="preserve">
<style type="text/css">
	.st0{display:none;}
	.st1{display:inline;fill:#1D1D1B;}
	.st2{fill:none;stroke:#FFFFFF;stroke-width:2.5;}
	.st3{fill:#FFFFFF;}
	.st4{fill:none;}
	.st5{fill:none;stroke:#FFFFFF;stroke-miterlimit:10;}
	.st6{fill:none;stroke:#FFFFFF;stroke-linecap:round;stroke-miterlimit:10;}
</style>
<g id="Слой_2" class="st0">
	<rect class="st1" width="150" height="46"/>
</g>
<g id="Слой_1">
	<circle class="st2" cx="23" cy="23" r="21.8"/>
	<path class="st3" d="M60.3,19.6c0,0.4,0.7,0.9,2,1.6c0.5,0.2,0.9,0.4,1.3,0.6c0.4,0.2,0.8,0.5,1.2,0.8c0.4,0.3,0.7,0.8,1,1.3
		c0.2,0.5,0.3,1,0.3,1.6c0,1.3-0.5,2.5-1.4,3.3c-0.9,0.9-2.1,1.3-3.5,1.3c-1.5,0-2.9-0.5-4-1.5v-3.9c0.5,0.5,1.1,1,1.9,1.5
		c0.8,0.5,1.6,0.8,2.3,0.8c0.4,0,0.8-0.1,1.1-0.3c0.3-0.2,0.4-0.5,0.4-0.9c0-0.2-0.1-0.5-0.3-0.7c-0.2-0.2-0.4-0.4-0.6-0.5
		c-0.2-0.1-0.5-0.3-1-0.5c-0.5-0.2-0.8-0.4-1-0.5c-0.6-0.3-1.1-0.6-1.4-0.9c-0.5-0.3-0.8-0.7-1.1-1.3c-0.3-0.5-0.4-1.1-0.4-1.8
		c0-1.3,0.4-2.3,1.3-3.1c0.9-0.8,2-1.2,3.3-1.2c1.5,0,2.7,0.4,3.8,1.2v3.7c-1.5-1.2-2.8-1.8-3.9-1.8c-0.3,0-0.6,0.1-0.8,0.3
		C60.4,19.1,60.3,19.3,60.3,19.6z M74.8,26.9v3c-0.6,0.2-1.1,0.2-1.5,0.2c-1.3,0-2.2-0.4-2.9-1.2c-0.7-0.8-1-1.8-1-3v-3.4h-1.2v-2.7
		h1.2v-1.6l3.1-1.3v2.9h2.3v2.7h-2.3v3.5c0,0.3,0.1,0.5,0.2,0.8c0.2,0.2,0.4,0.3,0.7,0.3C73.8,27.2,74.2,27.1,74.8,26.9z M80.7,27.7
		c0.5,0,1-0.2,1.3-0.5c0.3-0.3,0.5-0.7,0.5-1.2v-0.1c-0.5-0.1-1-0.1-1.5-0.1c-0.4,0-0.7,0.1-1,0.3c-0.2,0.2-0.4,0.4-0.4,0.7
		C79.7,27.4,80,27.7,80.7,27.7z M85.5,23.6V30h-2.8l-0.1-0.8c-0.6,0.7-1.4,1-2.2,1c-1.2,0-2.1-0.3-2.7-0.8c-0.6-0.5-0.9-1.3-0.9-2.4
		c0-0.9,0.4-1.7,1.1-2.3c0.7-0.6,1.8-0.9,3-0.9c0.5,0,1,0,1.4,0.1v-0.5c0-0.3-0.1-0.5-0.4-0.7c-0.3-0.2-0.6-0.3-0.9-0.3
		c-0.6,0-1.1,0.1-1.5,0.2c-0.4,0.1-0.9,0.3-1.5,0.6v-2.9c1.2-0.5,2.2-0.7,3-0.7c1.3,0,2.3,0.4,3.2,1.1
		C85.1,21.5,85.5,22.4,85.5,23.6z M91.5,19.9l0.1,0.8c0.2-0.3,0.5-0.5,0.8-0.7c0.4-0.2,0.7-0.3,1-0.3c0.4,0,0.8,0,1.2,0.1V23
		c-0.4-0.1-0.8-0.2-1.2-0.2c-0.6,0-1,0.2-1.3,0.6c-0.3,0.4-0.4,1-0.4,1.7V30h-3.1V19.9H91.5z M107.1,25c0,1.4-0.4,2.7-1.3,3.7
		c-0.9,1-2,1.5-3.5,1.5c-0.9,0-1.7-0.3-2.4-1L99.8,30h-2.9V14.7h3.1v5.6c0.7-0.4,1.5-0.6,2.2-0.6c1.5,0,2.7,0.5,3.5,1.6
		C106.6,22.3,107.1,23.5,107.1,25z M103.9,25c0-0.7-0.2-1.3-0.5-1.7c-0.3-0.4-0.8-0.6-1.3-0.6c-0.6,0-1.1,0.2-1.5,0.7
		c-0.4,0.4-0.6,1-0.6,1.6v1.2c0.5,0.7,1.2,1.1,2,1.1c0.6,0,1-0.2,1.3-0.6C103.7,26.2,103.9,25.7,103.9,25z M115.4,25.5v-5.6h3.1v5.8
		c0,1.4-0.4,2.5-1.2,3.3c-0.8,0.8-1.9,1.2-3.3,1.2s-2.5-0.4-3.3-1.2c-0.8-0.8-1.2-1.9-1.2-3.3v-5.8h3.1v5.6c0,1.2,0.5,1.7,1.4,1.7
		S115.4,26.7,115.4,25.5z M129.7,21.6l-3.4,4.7c-0.2,0.2-0.4,0.6-0.8,1v0.1c0.6-0.1,1.2-0.1,1.6-0.1h2.7V30h-8.8v-1.6l3.5-4.9
		c0.1-0.2,0.4-0.5,0.8-0.9v-0.1c-0.5,0-0.9,0.1-1.4,0.1h-2.5v-2.7h8.4V21.6z M140.3,21.6l-3.4,4.7c-0.2,0.2-0.4,0.6-0.8,1v0.1
		c0.6-0.1,1.2-0.1,1.6-0.1h2.7V30h-8.8v-1.6l3.5-4.9c0.1-0.2,0.4-0.5,0.8-0.9v-0.1c-0.5,0-0.9,0.1-1.4,0.1h-2.5v-2.7h8.4V21.6z"/>
	<rect x="6.3" y="4.3" class="st4" width="34" height="34"/>
</g>
<g id="Слой_3">
	<path class="st5" d="M26.1,32.2c9.2-3.8,7.2-13.5,7.2-13.5H11.1c0,0-1.5,9,7.1,13.5"/>
	<path class="st5" d="M7.3,32.2l29.7,0c0.3,0,0.4,0.3,0.3,0.5c-0.6,0.9-2.1,2.2-3.3,2.5c-0.2,0.1-18.8,0.1-22.7,0
		c-0.5,0-0.9-0.2-1.2-0.4C9,34,6.7,32.2,7.3,32.2z"/>
	<path class="st5" d="M33.3,23c0,0,0.6-1.9,3.2-1.9c1.5,0,2.7,0.8,2.7,2.7c0,3.1-4.8,5.4-8.8,5.7"/>
	<path class="st6" d="M19,15.8c0,0-0.8-1.2-0.9-2.4c0-1.3,0.9-1.7,1.3-2.6c0.6-1.6-0.7-3.4-0.7-3.4"/>
	<path class="st6" d="M23.2,15.8c0,0-0.8-1.2-0.9-2.4c0-1.3,0.9-1.7,1.3-2.6c0.6-1.6-0.7-3.4-0.7-3.4"/>
	<path class="st6" d="M27.3,15.8c0,0-0.8-1.2-0.9-2.4c0-1.3,0.9-1.7,1.3-2.6C28.3,9.1,27,7.4,27,7.4"/>
</g>
</svg>
